<svg width="220" height="58" viewBox="0 0 220 58" fill="none" xmlns="http://www.w3.org/2000/svg">
<path fill-rule="evenodd" clip-rule="evenodd" d="M95.009 10.7256V14.5964H73.1621C72.6411 14.8534 72.3811 15.2418 72.3811 15.7567C72.3811 16.2725 72.6411 16.6597 73.1621 16.9167L89.5473 21.5612C93.1886 22.5921 95.009 23.8836 95.009 25.4301V27.7515C95.009 30.3327 93.4476 31.6213 90.3274 31.6213H67.7004V27.7515H89.5473C90.0674 27.4945 90.3274 27.1073 90.3274 26.5913C90.3274 26.0754 90.0674 25.688 89.5473 25.4301L73.1621 20.7865C69.5196 19.7549 67.7004 18.4644 67.7004 16.9167V14.5964C67.7004 12.0164 69.2615 10.7256 72.3811 10.7256H95.009Z" fill="#D82826"/>
<path fill-rule="evenodd" clip-rule="evenodd" d="M98.1304 14.595V10.7242H125.438V14.595H114.125V31.6208H109.442V14.595H98.1304Z" fill="#D82826"/>
<path fill-rule="evenodd" clip-rule="evenodd" d="M150.404 14.595H134.02C133.498 14.595 133.24 14.855 133.24 15.3699V26.9792C133.24 27.494 133.498 27.7529 134.02 27.7529H150.404C150.924 27.7529 151.185 27.494 151.185 26.9792V15.3699C151.185 14.855 150.924 14.595 150.404 14.595ZM133.24 10.7242H151.185C154.306 10.7242 155.865 12.0178 155.865 14.595V27.7529C155.865 30.3313 154.306 31.6208 151.185 31.6208H133.24C130.119 31.6208 128.558 30.3313 128.558 27.7529V14.595C128.558 12.0178 130.119 10.7242 133.24 10.7242Z" fill="#D82826"/>
<path fill-rule="evenodd" clip-rule="evenodd" d="M160.548 10.7256H183.175C186.295 10.7256 187.855 12.0164 187.855 14.5964V18.4644C187.855 19.7549 187.466 20.5286 186.686 20.7865C187.466 21.3026 187.855 22.0772 187.855 23.1098L189.025 31.6213H184.344L183.175 23.1098C183.175 22.5921 182.915 22.334 182.395 22.334H165.229V31.6213H160.548V18.4644H182.395C182.915 18.4644 183.175 18.2074 183.175 17.6906V15.3692C183.175 14.8534 182.915 14.5964 182.395 14.5964H160.548V10.7256Z" fill="#D82826"/>
<path fill-rule="evenodd" clip-rule="evenodd" d="M219.845 10.7256V14.5964H197.998C197.478 14.5964 197.217 14.8534 197.217 15.3692V18.4644H219.845V22.334H197.217V26.9778C197.217 27.4945 197.478 27.7515 197.998 27.7515H219.845V31.6213H197.217C194.097 31.6213 192.537 30.3327 192.537 27.7515V14.5964C192.537 12.0164 194.097 10.7256 197.217 10.7256H219.845Z" fill="#D82826"/>
<path fill-rule="evenodd" clip-rule="evenodd" d="M83.4316 37.3381V39.6964H70.1159C69.7969 39.6964 69.6399 39.8531 69.6399 40.1675V47.2433C69.6399 47.5575 69.7969 47.7144 70.1159 47.7144H83.4316V50.0737H69.6399C67.7383 50.0737 66.7864 49.2861 66.7864 47.7144V39.6964C66.7864 38.1245 67.7383 37.3381 69.6399 37.3381H83.4316Z" fill="#1B315D"/>
<path fill-rule="evenodd" clip-rule="evenodd" d="M99.5996 39.6963H89.6133C89.2962 39.6963 89.1383 39.8529 89.1383 40.1674V47.2432C89.1383 47.5577 89.2962 47.7143 89.6133 47.7143H99.5996C99.9164 47.7143 100.074 47.5577 100.074 47.2432V40.1674C100.074 39.8529 99.9164 39.6963 99.5996 39.6963ZM89.1383 37.338H100.074C101.978 37.338 102.929 38.1243 102.929 39.6963V47.7143C102.929 49.2872 101.978 50.0735 100.074 50.0735H89.1383C87.2345 50.0735 86.2848 49.2872 86.2848 47.7143V39.6963C86.2848 38.1243 87.2345 37.338 89.1383 37.338Z" fill="#1B315D"/>
<path fill-rule="evenodd" clip-rule="evenodd" d="M122.426 37.3381V47.7144C122.426 49.2861 121.475 50.0737 119.572 50.0737C118.621 50.0737 117.827 49.7592 117.195 49.1295L108.634 39.6964V50.0737H105.782V39.6964C105.782 38.1245 106.733 37.3381 108.634 37.3381C109.586 37.3381 110.379 37.6524 111.013 38.2811L119.572 47.7144V37.3381H122.426Z" fill="#1B315D"/>
<path fill-rule="evenodd" clip-rule="evenodd" d="M141.924 37.3381V39.6964H128.608C128.289 39.6964 128.131 39.8531 128.131 40.1675V47.2433C128.131 47.5575 128.289 47.7144 128.608 47.7144H139.07V44.4139H133.602V42.0547H141.924V47.7144C141.924 49.2861 140.972 50.0737 139.07 50.0737H128.131C126.231 50.0737 125.28 49.2861 125.28 47.7144V39.6964C125.28 38.1245 126.231 37.3381 128.131 37.3381H141.924Z" fill="#1B315D"/>
<path fill-rule="evenodd" clip-rule="evenodd" d="M161.42 37.3381V47.7144C161.42 49.2861 160.47 50.0737 158.568 50.0737C157.616 50.0737 156.822 49.7592 156.189 49.1295L147.63 39.6964V50.0737H144.776V39.6964C144.776 38.1245 145.728 37.3381 147.63 37.3381C148.581 37.3381 149.373 37.6524 150.007 38.2811L158.568 47.7144V37.3381H161.42Z" fill="#1B315D"/>
<path fill-rule="evenodd" clip-rule="evenodd" d="M180.918 37.3381V39.6964H167.603C167.284 39.6964 167.127 39.8531 167.127 40.1675V47.2433C167.127 47.5575 167.284 47.7144 167.603 47.7144H178.066V44.4139H172.597V42.0547H180.918V47.7144C180.918 49.2861 179.967 50.0737 178.066 50.0737H167.127C165.226 50.0737 164.274 49.2861 164.274 47.7144V39.6964C164.274 38.1245 165.226 37.3381 167.127 37.3381H180.918Z" fill="#1B315D"/>
<path fill-rule="evenodd" clip-rule="evenodd" d="M186.625 37.3381V42.0547H197.562V37.3381H200.417V50.0737H197.562V44.4139H186.625V50.0737H183.773V37.3381H186.625Z" fill="#1B315D"/>
<path fill-rule="evenodd" clip-rule="evenodd" d="M219.914 37.3381V39.6964H206.598C206.279 39.6964 206.122 39.8531 206.122 40.1675V42.0547H219.914V44.4139H206.122V47.2433C206.122 47.5575 206.279 47.7144 206.598 47.7144H219.914V50.0737H206.122C204.221 50.0737 203.27 49.2861 203.27 47.7144V39.6964C203.27 38.1245 204.221 37.3381 206.122 37.3381H219.914Z" fill="#1B315D"/>
<mask id="mask0" mask-type="alpha" maskUnits="userSpaceOnUse" x="0" y="0" width="45" height="45">
<path fill-rule="evenodd" clip-rule="evenodd" d="M0 0.237732H44.1783V44.1506H0V0.237732Z" fill="white"/>
</mask>
<g mask="url(#mask0)">
<path fill-rule="evenodd" clip-rule="evenodd" d="M44.1783 3.17689L43.9164 9.96574L41.5191 12.3347C38.0473 9.80411 33.7652 8.30799 29.1268 8.30799C17.5569 8.30799 8.17403 17.6149 8.17403 29.0917C8.17403 33.6683 9.66754 37.8982 12.1961 41.3309L9.74686 43.7515L3.05556 44.1506L0 36.6805L4.94065 31.9649C4.83377 31.0345 4.7729 30.0856 4.7729 29.1288C4.7729 28.1428 4.83377 27.1704 4.95048 26.2129L4.94545 26.2176L0 21.4602L3.19599 14.0331L10.0265 14.1451C11.2159 12.6587 12.5642 11.3214 14.0663 10.1504V3.22277L21.3259 0.237671L26.0997 5.17124C27.0878 5.05048 28.0917 4.98535 29.1131 4.98535C30.1072 4.98535 31.0864 5.04668 32.0529 5.16149L36.8534 0.237671L44.1783 3.17689Z" fill="#AA2523"/>
</g>
<path fill-rule="evenodd" clip-rule="evenodd" d="M53.2713 32.1039L58.259 36.6997L55.0718 43.9694L48.4141 43.8349C47.1923 45.404 45.7882 46.825 44.225 48.056V54.9138L36.7457 57.9496L32.1779 53.0814C31.1752 53.2066 30.1538 53.271 29.1126 53.271C28.1283 53.271 27.158 53.2116 26.2022 53.0949L26.2061 53.0997L21.2939 57.9496L14.2062 54.9412V48.2129L16.6466 45.7836C20.1321 48.351 24.4516 49.8742 29.1274 49.8742C40.7023 49.8742 50.0801 40.5676 50.0801 29.0915C50.0801 24.4315 48.5308 20.1226 45.9186 16.6569L48.3072 14.2829L55.166 13.9549L58.259 21.4647L53.2527 26.0277C53.383 27.0467 53.4537 28.0774 53.4537 29.1286C53.4537 30.1369 53.3881 31.1276 53.2663 32.1039H53.2713Z" fill="#1B3E70"/>
<path fill-rule="evenodd" clip-rule="evenodd" d="M25.4573 29.3256C25.4573 30.3544 25.8597 31.319 26.5896 32.043C28.0498 33.4914 30.6088 33.4904 32.0671 32.043C32.7971 31.319 33.1925 30.2921 33.1925 29.2652C33.1925 28.2374 32.7971 27.3322 32.0671 26.6081C30.5568 25.1104 28.1009 25.1104 26.5896 26.6081C25.8597 27.3322 25.4573 28.2968 25.4573 29.3256Z" fill="#D82826"/>
<path fill-rule="evenodd" clip-rule="evenodd" d="M25.8069 25.8326C27.7479 23.9064 30.9065 23.9064 32.8505 25.8326C34.7924 27.7587 34.7924 30.8938 32.8505 32.8189C30.9086 34.7441 27.7488 34.7441 25.8069 32.8189C23.7728 30.8011 23.9377 27.6867 25.8069 25.8326ZM16.0651 42.393C16.7225 43.0443 17.7264 43.0735 18.3013 42.503L23.5707 37.366C24.0299 36.9096 24.0838 36.202 23.7778 35.6075L24.653 34.7391C27.5125 37.1713 31.7673 36.9992 34.4155 34.3721C37.2191 31.5895 37.2191 27.0627 34.4155 24.2801C31.6101 21.4975 27.0462 21.4975 24.2408 24.2801C21.5689 26.9315 21.4491 31.1643 23.8698 33.9635L22.9965 34.8297C22.3953 34.528 21.6828 34.5806 21.2226 35.036L15.9532 40.175C15.3672 40.7571 15.4183 41.7507 16.0651 42.393Z" fill="#D82826"/>
<path fill-rule="evenodd" clip-rule="evenodd" d="M27.8078 21.5763V18.7928C27.8078 18.1571 27.2887 17.6423 26.6481 17.6423H18.4652C17.8235 17.6423 17.3044 18.1571 17.3044 18.7928V26.909C17.3044 27.5446 17.8235 28.0595 18.4652 28.0595H21.4355C21.6682 26.4466 22.5336 24.8145 23.7817 23.5766C24.8651 22.501 26.4145 21.8927 27.8078 21.5763Z" fill="#1B3E70"/>
<path fill-rule="evenodd" clip-rule="evenodd" d="M41.2566 26.9094V18.7923C41.2566 18.1576 40.7375 17.6428 40.0967 17.6428H31.914C31.2723 17.6428 30.7532 18.1576 30.7532 18.7923V21.4679C32.3596 21.7082 33.9041 22.4313 35.1376 23.6548C36.3857 24.8928 37.1166 26.4462 37.3493 28.0609H40.0967C40.7375 28.0609 41.2566 27.5441 41.2566 26.9094Z" fill="#1B3E70"/>
<path fill-rule="evenodd" clip-rule="evenodd" d="M30.7535 37.2422V40.0062C30.7535 40.6409 31.2726 41.1557 31.9134 41.1557H40.097C40.7369 41.1557 41.256 40.6409 41.256 40.0062V31.8881C41.256 31.2525 40.7369 30.7376 40.097 30.7376H37.278C36.9815 32.1897 36.4282 33.6362 35.2958 34.7584C34.0671 35.9769 32.3627 37.0018 30.7535 37.2422Z" fill="#1B3E70"/>
<path fill-rule="evenodd" clip-rule="evenodd" d="M41.5186 12.3348L39.8111 14.0284C36.7831 11.9183 33.0975 10.6685 29.1126 10.6685C18.8349 10.6685 10.502 18.9337 10.502 29.1289C10.502 33.0572 11.7431 36.6993 13.8568 39.6882L12.1956 41.3312C9.66677 37.8983 8.17446 33.6686 8.17446 29.092C8.17446 17.6149 17.5563 8.30829 29.1272 8.30829C33.7647 8.30829 38.048 9.80345 41.5186 12.3348Z" fill="#CD2026"/>
<path fill-rule="evenodd" clip-rule="evenodd" d="M50.0803 29.0918C50.0803 40.568 40.7022 49.8746 29.1264 49.8746C24.4517 49.8746 20.1322 48.3511 16.6468 45.7827L18.2932 44.1409C21.3449 46.3064 25.0777 47.5883 29.1127 47.5883C39.3914 47.5883 47.7243 39.3231 47.7243 29.1289C47.7243 25.1022 46.4182 21.3861 44.2153 18.3554L45.9187 16.657C48.5309 20.123 50.0803 24.4316 50.0803 29.0918Z" fill="#194D98"/>
<path fill-rule="evenodd" clip-rule="evenodd" d="M16.773 45.9658L16.7996 45.9392C20.4317 48.5293 24.7174 49.8837 29.2022 49.859C40.8232 49.7946 50.2245 40.365 50.1598 28.8378C50.1348 24.4115 48.7341 20.1934 46.107 16.6331L46.0351 16.5408L45.8616 16.7139C48.4978 20.2493 49.8897 24.4298 49.9146 28.8392C49.9786 40.2315 40.6863 49.5521 29.2008 49.6156C24.7339 49.6403 20.4662 48.2801 16.8585 45.6813L16.7734 45.62L16.6126 45.7807C16.6644 45.8422 16.7181 45.9038 16.773 45.9658Z" fill="#296BA3"/>
<path fill-rule="evenodd" clip-rule="evenodd" d="M41.3139 11.9891L41.2878 12.016C37.6257 9.46778 33.3244 8.16231 28.8406 8.23837C17.2208 8.43543 7.92954 17.9719 8.12845 29.4978C8.20274 33.8145 9.59296 37.9137 12.1371 41.3889L12.3156 41.2123C9.81583 37.7851 8.44694 33.747 8.37361 29.4935C8.17734 18.1027 17.3605 8.67646 28.8446 8.48178C33.3108 8.40596 37.5941 9.71714 41.2317 12.2746L41.3175 12.335L41.4764 12.1724C41.4237 12.1115 41.3698 12.0504 41.3139 11.9891Z" fill="#D74341"/>
</svg>
